<?xml version="1.0" encoding="utf-8"?>
<!-- Generator: Adobe Illustrator 27.5.0, SVG Export Plug-In . SVG Version: 6.00 Build 0)  -->
<svg version="1.1" xmlns="http://www.w3.org/2000/svg" xmlns:xlink="http://www.w3.org/1999/xlink" x="0px" y="0px"
	 viewBox="0 0 4975 4975" style="enable-background:new 0 0 4975 4975;" xml:space="preserve">
<g id="Layer_1">
	<radialGradient id="SVGID_1_" cx="2487.5" cy="2487.5" r="3776.8708" gradientUnits="userSpaceOnUse">
		<stop  offset="0" style="stop-color:#FFFFFF"/>
		<stop  offset="0.6286" style="stop-color:#FFFFFF"/>
		<stop  offset="0.7012" style="stop-color:#FAFAFB"/>
		<stop  offset="0.7844" style="stop-color:#ECEDED"/>
		<stop  offset="0.8728" style="stop-color:#D5D6D8"/>
		<stop  offset="0.9643" style="stop-color:#B6B7BA"/>
		<stop  offset="1" style="stop-color:#A7A9AC"/>
	</radialGradient>
	<rect style="fill:url(#SVGID_1_);" width="4975" height="4975"/>
	<g>
		<g>
			<g>
				<polygon style="fill:#27AAE1;" points="2291.9,2205.178 2100.291,2009.404 1896.188,2205.178 1929.514,2205.178 
					1929.514,2418.655 2258.576,2418.655 2258.576,2205.178 				"/>
			</g>
		</g>
		<g>
			<g>
				<rect x="2069.564" y="2103.65" style="fill:#FFF200;" width="21.869" height="21.868"/>
				<rect x="2102.373" y="2103.65" style="fill:#FFF200;" width="21.868" height="21.868"/>
			</g>
			<g>
				<rect x="2069.564" y="2134.893" style="fill:#FFF200;" width="21.869" height="21.856"/>
				<rect x="2102.373" y="2134.893" style="fill:#FFF200;" width="21.868" height="21.856"/>
			</g>
			<g>
				<rect x="2069.564" y="2167.688" style="fill:#FFF200;" width="21.869" height="21.868"/>
				<rect x="2102.373" y="2167.688" style="fill:#FFF200;" width="21.868" height="21.868"/>
			</g>
		</g>
		<g>
			<g>
				<polygon style="fill:#1C75BC;" points="2686.509,2077.285 2403.644,1788.266 2102.327,2077.285 2151.515,2077.285 
					2151.515,2392.429 2637.309,2392.429 2637.309,2077.285 				"/>
			</g>
		</g>
		<g>
			<g>
				<rect x="2358.286" y="1927.386" style="fill:#FFF200;" width="32.29" height="32.289"/>
				<rect x="2406.715" y="1927.386" style="fill:#FFF200;" width="32.278" height="32.289"/>
			</g>
			<g>
				<rect x="2358.286" y="1973.514" style="fill:#FFF200;" width="32.29" height="32.278"/>
				<rect x="2406.715" y="1973.514" style="fill:#FFF200;" width="32.278" height="32.278"/>
			</g>
			<g>
				<rect x="2358.286" y="2021.942" style="fill:#FFF200;" width="32.29" height="32.278"/>
				<rect x="2406.715" y="2021.942" style="fill:#FFF200;" width="32.278" height="32.278"/>
			</g>
		</g>
		<g>
			<g>
				<polygon style="fill:#2B3990;" points="3213.382,1882.947 2828.273,1489.44 2418.008,1882.947 2484.987,1882.947 
					2484.987,2312.024 3146.395,2312.024 3146.395,1882.947 				"/>
			</g>
		</g>
		<g>
			<g>
				<rect x="2771.745" y="1793.99" style="fill:#FFF200;" width="43.95" height="43.949"/>
				<rect x="2837.678" y="1793.99" style="fill:#FFF200;" width="43.95" height="43.949"/>
			</g>
			<g>
				<rect x="2771.745" y="1856.784" style="fill:#FFF200;" width="43.95" height="43.949"/>
				<rect x="2837.678" y="1856.784" style="fill:#FFF200;" width="43.95" height="43.949"/>
			</g>
			<g>
				<rect x="2771.745" y="1922.717" style="fill:#FFF200;" width="43.95" height="43.95"/>
				<rect x="2837.678" y="1922.717" style="fill:#FFF200;" width="43.95" height="43.95"/>
			</g>
		</g>
		<path style="fill:#262262;" d="M3997.466,2789.909c-347.043-310.278-447.548-544.54-1063.287-544.54
			c-615.725,0-1284.76,161.66-1956.645,544.54H3997.466z"/>
		<path style="fill:#FFFFFF;" d="M3997.466,2789.909c-26.206-22.21-51.871-45.063-77.338-68.14
			c-25.409-23.137-50.519-46.605-75.477-70.213c-24.992-23.572-49.805-47.312-74.845-70.757c-25.035-23.448-50.211-46.698-76-69.163
			c-51.462-45.007-105.488-86.971-163.89-121.58c-29.184-17.292-59.352-32.826-90.401-46.331
			c-31.041-13.527-62.955-24.985-95.4-34.714c-32.455-9.709-65.477-17.573-98.816-23.909
			c-33.339-6.345-66.984-11.256-100.796-14.917c-67.64-7.274-135.846-10.057-204.088-9.935
			c-34.169,0.117-68.378,0.629-102.549,1.661c-34.177,1.029-68.337,2.555-102.468,4.573c-68.265,3.966-136.423,9.802-204.358,17.608
			c-67.949,7.682-135.686,17.281-203.115,28.714c-67.454,11.303-134.577,24.579-201.348,39.464
			c-66.781,14.854-133.142,31.609-199.104,49.841c-32.977,9.137-65.827,18.737-98.569,28.707
			c-32.751,9.939-65.378,20.306-97.872,31.087c-130.007,43.038-257.964,92.448-383.59,147.405
			c-62.827,27.455-125.046,56.36-186.696,86.498c-30.813,15.093-61.496,30.473-92.02,46.18
			c-15.278,7.824-30.511,15.742-45.704,23.739c-15.185,8.013-30.347,16.072-45.488,24.182l22.093-13.255l22.203-13.072
			c14.828-8.672,29.704-17.269,44.633-25.775c29.883-16.967,59.973-33.587,90.289-49.797
			c60.611-32.463,122.083-63.368,184.295-92.763c124.446-58.741,251.985-111.168,382.012-156.738
			c32.512-11.375,65.174-22.337,97.976-32.875c32.811-10.51,65.776-20.551,98.862-30.185
			c66.163-19.308,132.913-36.633,200.065-52.252c67.164-15.579,134.792-29.181,202.735-40.996
			c67.966-11.689,136.263-21.488,204.789-29.333c68.538-7.725,137.295-13.569,206.168-17.333
			c34.438-1.85,68.902-3.201,103.378-4.052c34.481-0.851,68.952-1.223,103.46-0.979c69.09,0.518,138.324,3.841,207.169,12.227
			c34.412,4.188,68.729,9.56,102.757,16.585c34.021,7.034,67.766,15.643,100.948,26.154
			c66.371,20.953,130.342,50.074,189.252,87.018c29.476,18.426,57.784,38.592,84.919,60.099
			c27.144,21.504,53.221,44.207,78.541,67.615c50.61,46.874,98.488,96.213,146.672,145.13
			C3898.908,2694.277,3947.367,2742.893,3997.466,2789.909z"/>
		<path style="fill:#FFFFFF;" d="M3997.466,2789.909c-52.19-41.821-103.681-84.497-155.994-125.811
			c-52.334-41.233-105.595-81.119-161.797-115.286c-28.089-17.078-56.93-32.643-86.563-46.271
			c-29.62-13.66-60.044-25.342-91.073-35.162c-62.078-19.665-126.527-31.704-191.694-39.621
			c-32.602-3.915-65.397-6.869-98.312-9.027c-32.91-2.225-65.937-3.645-99.017-4.674c-16.541-0.504-33.098-0.861-49.667-1.134
			c-16.567-0.289-33.147-0.467-49.737-0.553c-16.589-0.077-33.187-0.081-49.791-0.037c-16.593,0.048-33.218,0.203-49.906,0.354
			c-133.377,1.146-266.511,3.053-399.302,8.794c-132.778,5.711-265.228,15.194-396.902,30.797
			c-131.659,15.585-262.538,37.294-391.797,66.703c-64.626,14.697-128.832,31.332-192.513,49.93
			c-63.677,18.612-126.811,39.243-189.293,61.887c-31.245,11.313-62.312,23.164-93.229,35.453
			c-30.921,12.283-61.612,25.181-92.182,38.429c-61.099,26.59-121.415,55.184-181.162,85.229
			c56.315-36.078,114.345-69.611,173.659-100.849c59.311-31.248,119.934-60.175,181.646-86.713
			c123.429-53.088,251.166-96.643,381.326-131.074c65.071-17.273,130.77-32.194,196.835-45.16
			c66.083-12.882,132.541-23.79,199.226-32.784c133.376-18.064,267.554-28.779,401.662-34.631
			c134.129-5.862,268.203-6.921,401.97-6.005l25.099,0.2l25.18,0.291c16.789,0.221,33.585,0.556,50.387,1
			c16.801,0.438,33.608,0.969,50.422,1.612c16.813,0.661,33.632,1.459,50.455,2.379c67.278,3.719,134.695,9.629,201.826,20.113
			c16.776,2.639,33.532,5.551,50.24,8.831c16.705,3.296,33.365,6.936,49.949,10.979c16.588,4.028,33.082,8.535,49.465,13.458
			c16.384,4.923,32.639,10.331,48.711,16.258c32.159,11.809,63.569,25.737,93.839,41.645c15.128,7.967,29.983,16.401,44.534,25.273
			c14.541,8.888,28.791,18.186,42.754,27.834c27.91,19.327,54.673,40.013,80.583,61.523c12.947,10.767,25.7,21.722,38.311,32.808
			c12.624,11.068,25.06,22.322,37.381,33.678c12.321,11.357,24.579,22.758,36.707,34.289c12.127,11.531,24.199,23.106,36.225,34.725
			C3949.912,2742.896,3973.797,2766.279,3997.466,2789.909z"/>
		<path style="fill:#FFFFFF;" d="M3997.466,2789.909c-25.542-20.274-51.216-40.306-77.507-59.384
			c-13.109-9.58-26.371-18.922-39.809-27.949c-13.416-9.056-26.988-17.829-40.781-26.169c-13.801-8.323-27.762-16.304-41.951-23.747
			c-14.191-7.441-28.614-14.333-43.257-20.573c-29.253-12.558-59.421-22.396-90.221-29.194c-30.8-6.836-62.204-10.666-93.896-12.407
			c-15.847-0.895-31.769-1.259-47.741-1.281c-15.972-0.038-31.996,0.289-48.056,0.854c-32.123,1.088-64.39,3.1-96.75,5.24
			l-97.338,6.79c-65.046,4.489-130.353,8.371-195.752,10.821c-32.701,1.229-65.426,2.133-98.159,2.704
			c-16.382,0.265-32.702,0.478-49.14,0.572c-16.43,0.101-32.85,0.039-49.26-0.138c-131.312-1.374-261.828-9.945-391.738-18.786
			c-129.919-8.891-259.359-18.168-388.682-22.276c-129.282-4.113-258.521-3.143-386.985,7.977
			c-128.416,11.004-256.029,32.262-380.625,66.576c-15.572,4.283-31.092,8.773-46.567,13.441
			c-15.467,4.689-30.885,9.566-46.254,14.62c-30.727,10.14-61.192,21.149-91.43,32.853c-60.452,23.475-119.78,50.177-178.035,79.456
			c54.888-35.201,112.189-66.88,171.268-95.1c29.523-14.154,59.541-27.329,89.915-39.696c15.182-6.199,30.47-12.153,45.851-17.873
			c15.374-5.74,30.844-11.236,46.392-16.52c62.191-21.146,125.668-38.718,189.9-52.955c64.236-14.248,129.229-25.104,194.526-33.145
			c130.65-16.027,262.361-20.566,393.399-18.662c131.1,1.854,261.625,10.003,391.549,18.66
			c129.931,8.621,259.386,17.818,388.537,20.917c16.143,0.371,32.278,0.649,48.406,0.841c16.12,0.172,32.356,0.275,48.53,0.301
			c32.379,0.087,64.763-0.095,97.154-0.524c32.395-0.398,64.795-1.104,97.223-1.929c32.426-0.875,64.878-1.867,97.384-2.977
			c32.51-1.038,65.073-2.212,97.759-3.018c32.684-0.842,65.494-1.358,98.484-0.949c16.495,0.235,33.033,0.714,49.607,1.574
			c16.571,0.877,33.177,2.164,49.775,3.985c33.182,3.655,66.379,9.65,98.682,18.96c16.152,4.621,32.052,10.099,47.62,16.289
			c15.566,6.201,30.771,13.19,45.599,20.787c14.811,7.637,29.229,15.903,43.285,24.651c14.058,8.745,27.757,17.97,41.093,27.632
			c13.347,9.646,26.396,19.633,39.168,29.919c12.751,10.315,25.248,20.896,37.545,31.674
			C3950.708,2744.398,3974.461,2766.792,3997.466,2789.909z"/>
	</g>
</g>
<g id="Isolation_Mode">
	
		<radialGradient id="SVGID_00000046335495787639768340000002844140327354764189_" cx="2487.5" cy="49717.1914" r="1820.1136" gradientTransform="matrix(1 0 0 0.1803 0 -5684.2993)" gradientUnits="userSpaceOnUse">
		<stop  offset="0" style="stop-color:#808285"/>
		<stop  offset="0.1191" style="stop-color:#9D9FA2"/>
		<stop  offset="0.2679" style="stop-color:#BEC0C2"/>
		<stop  offset="0.4136" style="stop-color:#D9DADC"/>
		<stop  offset="0.5536" style="stop-color:#ECEDEE"/>
		<stop  offset="0.6852" style="stop-color:#F8F9F9"/>
		<stop  offset="0.8" style="stop-color:#FFFFFF"/>
	</radialGradient>
	<path style="fill:url(#SVGID_00000046335495787639768340000002844140327354764189_);" d="M4437.114,3279.707
		c0,215.543-872.872,390.269-1949.613,390.269S537.886,3495.25,537.886,3279.707c0-215.536,872.873-390.263,1949.615-390.263
		S4437.114,3064.171,4437.114,3279.707z"/>
</g>
</svg>
